# xmcd
#
# Track frame offsets:
#       150
#       12410
#       25715
#       35660
#       50935
#       62965
#       76282
#       90297
#       103080
#       116095
#       127027
#       150265
#       167147
#       178610
#
# Disc length: 2603 seconds
#
# Revision: 1
# Processed by: cddbd v1.5.2PL0 Copyright (c) Steve Scherf et al.
# Submitted via: MusiCat 1.1
#
DISCID=b40a290e
DTITLE=The Jet Blacks - Instrumental
DYEAR=1900
DGENRE=
TTITLE0=I can see clearly now
TTITLE1=Atlantis
TTITLE2=Last Date
TTITLE3=You got it
TTITLE4=If I were a carpenter
TTITLE5=Delta Lady
TTITLE6=Because they're young
TTITLE7=Theme for young lovers
TTITLE8=To my grandson
TTITLE9=Only the lonely
TTITLE10=Rock and Roll lullaby
TTITLE11=Mustang Sally
TTITLE12=Massachussets
TTITLE13=Old Time rock and roll
EXTD=\n\n
EXTT0=
EXTT1=
EXTT2=
EXTT3=
EXTT4=
EXTT5=
EXTT6=
EXTT7=
EXTT8=
EXTT9=
EXTT10=
EXTT11=
EXTT12=
EXTT13=
PLAYORDER=
